AB08_12Mar_ss_12ms_01
version=1
nRows=26
nColumns=19
inDegrees=yes
endheader
time	ground_force1_vx	ground_force1_vy	ground_force1_vz	ground_force1_px	ground_force1_py	ground_force1_pz	ground_torque1_x	ground_torque1_y	ground_torque1_z	ground_force2_vx	ground_force2_vy	ground_force2_vz	ground_force2_px	ground_force2_py	ground_force2_pz	ground_torque2_x	ground_torque2_y	ground_torque2_z
26.670000	44.831543	786.832703	-180.892029	0.396859	0.000000	-0.569576	0.000053	-8.138592	0.000022	69.696960	412.062775	47.309872	0.570705	0.000000	-1.092028	-0.000000	-15.871552	0.000029	
26.671000	42.084961	775.934265	-180.281677	0.396723	0.000000	-0.568184	0.000040	-8.369398	0.000010	66.187439	415.406281	47.004696	0.568009	0.000000	-1.101975	0.000004	-16.841740	0.000020	
26.672000	40.711670	769.576843	-176.466980	0.396641	0.000000	-0.565618	0.000003	-10.599300	0.000012	55.048523	423.613068	53.413387	0.560771	0.000000	-1.106463	0.000036	-14.938349	0.000031	
26.673000	38.270264	768.668640	-172.347107	0.394900	0.000000	-0.563442	0.000035	-12.167957	0.000021	42.994080	436.379181	62.721249	0.553918	0.000000	-1.119799	0.000053	-16.649033	-0.000005	
26.674000	39.185791	768.365906	-171.431580	0.395152	0.000000	-0.565877	0.000015	-10.412059	0.000022	39.331970	439.418732	61.500546	0.551907	0.000000	-1.127551	0.000030	-16.528381	0.000007	
26.675000	39.643555	763.522156	-169.295349	0.396498	0.000000	-0.565012	-0.000020	-10.520665	-0.000002	41.925964	444.282013	57.380672	0.559531	0.000000	-1.125063	0.000058	-21.492389	0.000019	
26.676000	42.390137	755.045593	-168.379822	0.397624	0.000000	-0.563956	0.000000	-7.440436	0.000024	36.280212	454.920441	61.805721	0.566186	0.000000	-1.115862	0.000024	-24.893990	0.000031	
26.677000	41.016846	743.238953	-169.295349	0.398177	0.000000	-0.566051	0.000011	-3.730736	0.000013	28.650818	467.382599	68.519592	0.563624	0.000000	-1.117333	0.000048	-19.178192	0.000015	
26.678000	41.016846	732.037781	-168.837585	0.400133	0.000000	-0.561439	-0.000008	-3.515595	0.000008	15.223083	487.443634	65.315247	0.564063	0.000000	-1.113263	0.000031	-16.173171	0.000017	
26.679000	40.253906	727.799500	-170.516052	0.401855	0.000000	-0.557365	-0.000027	-7.329252	0.000014	11.255798	491.699005	58.448788	0.558852	0.000000	-1.117478	0.000055	-19.142136	-0.000003	
26.680000	33.387451	725.377625	-173.415222	0.400244	0.000000	-0.557217	-0.000003	-8.592920	0.000013	11.560974	496.866241	57.380672	0.558019	0.000000	-1.121032	-0.000000	-11.854692	0.000007	
26.681000	32.929688	725.074890	-173.415222	0.398374	0.000000	-0.557114	0.000039	-10.611889	0.000015	12.934265	504.465118	62.263485	0.564165	0.000000	-1.117164	0.000019	-10.391936	0.000019	
26.682000	30.793457	722.955750	-172.041931	0.395047	0.000000	-0.554715	0.000013	-12.908766	0.000011	7.288513	505.073029	61.805721	0.565706	0.000000	-1.112930	0.000033	-15.075226	0.000021	
26.683000	28.352051	718.414734	-173.262634	0.392918	0.000000	-0.556869	0.000011	-9.793188	0.000023	3.016052	505.680939	60.585018	0.560454	0.000000	-1.100048	0.000074	-16.433322	0.000038	
26.684000	29.267578	706.608093	-173.872986	0.396452	0.000000	-0.553797	-0.000007	-6.429111	0.000005	7.898865	510.544220	62.263485	0.561179	0.000000	-1.101479	0.000010	-11.048559	0.000028	
26.685000	31.403809	696.617859	-174.788513	0.402456	0.000000	-0.541514	0.000028	-6.424436	0.000024	12.018738	522.398499	65.773010	0.564377	0.000000	-1.116060	0.000014	-13.574822	-0.000003	
26.686000	34.150391	688.444031	-179.213562	0.406697	0.000000	-0.545121	0.000068	-3.296548	0.000012	11.408386	528.477600	67.146301	0.558458	0.000000	-1.110126	0.000043	-16.393566	0.000016	
26.687000	31.098633	683.903015	-182.112732	0.404215	0.000000	-0.553003	0.000043	-3.592589	0.000013	13.086853	526.349915	65.925598	0.555071	0.000000	-1.111840	0.000024	-13.670710	0.000002	
26.688000	26.215820	679.967468	-181.044617	0.398517	0.000000	-0.554774	0.000020	-8.139426	0.000005	17.817078	535.772522	68.367004	0.565004	0.000000	-1.102728	0.000053	-18.077219	0.000016	
26.689000	19.654541	674.518250	-179.976501	0.393306	0.000000	-0.550253	0.000034	-10.901036	0.000008	19.037781	545.499084	71.266174	0.571734	0.000000	-1.101347	0.000056	-25.916269	0.000046	
26.690000	17.213135	668.160828	-177.382507	0.393069	0.000000	-0.552216	0.000047	-11.264048	0.000021	24.530945	552.794006	76.148987	0.575695	0.000000	-1.094733	0.000064	-28.593464	0.000008	
26.691000	23.316650	661.803406	-172.957458	0.399411	0.000000	-0.547977	0.000037	-9.929007	-0.000004	23.920593	548.842590	76.148987	0.568576	0.000000	-1.099955	-0.000012	-21.282512	0.000036	
26.692000	27.741699	653.629578	-168.990173	0.405649	0.000000	-0.544424	0.000035	-6.926360	0.000007	12.629089	555.225647	75.691223	0.561465	0.000000	-1.105709	0.000090	-21.640226	-0.000004	
26.693000	28.046875	643.639343	-167.159119	0.407470	0.000000	-0.539664	0.000001	-4.711783	0.000011	1.337585	561.608704	79.353333	0.559542	0.000000	-1.107433	0.000049	-23.148383	0.000011	
26.694000	22.248535	631.529968	-163.649597	0.404875	0.000000	-0.534626	0.000023	-7.353510	0.000016	-2.019348	556.441467	81.794739	0.561115	0.000000	-1.109849	0.000051	-15.510486	0.000015	
26.695000	15.076904	623.961609	-165.938416	0.399134	0.000000	-0.535661	0.000012	-10.274885	-0.000000	1.337585	558.569153	81.031799	0.571399	0.000000	-1.103009	0.000035	-16.829217	0.000014	
